<svg width="110" height="110" viewBox="0 0 110 110" fill="none" xmlns="http://www.w3.org/2000/svg">
<path d="M106.777 86.2956C17.4702 86.2956 21.4524 86.3122 21.4468 86.2658C20.4679 78.4276 20.5073 78.9291 20.5711 78.9196C63.426 78.6968 -39.0463 78.9336 99.6488 78.9336C105.427 78.9336 109.785 74.5557 109.785 68.75V25.083C109.785 20.8506 106.342 17.4013 102.11 17.3937L75.4308 17.3478V10.5273C75.4308 6.73643 72.3467 3.65234 68.5558 3.65234H62.1165C58.3266 3.65234 55.2436 6.73557 55.2436 10.5252V17.313L26.6243 17.2631L24.4791 5.44844C23.9061 2.29152 21.1613 0 17.9526 0H3.22266C1.44289 0 0 1.44289 0 3.22266C0 5.00242 1.44289 6.44531 3.22266 6.44531C18.8192 6.44531 18.0939 6.35959 18.1375 6.59979C21.6341 25.8567 19.4088 12.398 28.7895 72.4314L20.5419 72.4743C16.6689 72.4891 13.654 75.8888 14.1374 79.7573L15.0509 87.0654C15.4554 90.301 18.2194 92.741 21.4801 92.741H27.1992C23.1602 100.584 28.8808 110 37.741 110C46.597 110 52.3237 100.587 48.2827 92.741H78.9766C74.9373 100.584 80.6581 110 89.5183 110C98.3742 110 104.101 100.587 100.06 92.741H106.777C108.557 92.741 110 91.2981 110 89.5183C110 87.7385 108.557 86.2956 106.777 86.2956ZM61.6892 10.5252C61.6892 10.2895 61.881 10.0977 62.1167 10.0977H68.556C68.793 10.0977 68.9857 10.2904 68.9857 10.5273V34.375C68.9857 36.1548 70.4286 37.5977 72.2083 37.5977H76.9942L66.9502 47.6478C66.0589 48.5397 64.6158 48.5397 63.7244 47.6478L53.6802 37.5977H58.4663C60.2461 37.5977 61.6889 36.1548 61.6889 34.375L61.6892 10.5252ZM55.2439 23.7583V31.1523H49.8644C45.5404 31.1523 43.3649 36.3932 46.4239 39.4548L59.1658 52.204C62.5763 55.6164 68.0982 55.6168 71.509 52.204L84.2508 39.4548C87.3078 36.396 85.1381 31.1523 80.8105 31.1523H75.431V23.7931L102.099 23.8391C102.783 23.8401 103.34 24.3983 103.34 25.083V68.75C103.34 70.9859 101.857 72.4883 99.6488 72.4883H35.322L27.7 23.7104L55.2439 23.7583ZM43.1477 98.1477C43.1477 101.129 40.7221 103.555 37.7407 103.555C34.7594 103.555 32.334 101.129 32.334 98.1477C32.334 95.1663 34.7596 92.7407 37.741 92.7407C40.7223 92.7407 43.1477 95.1665 43.1477 98.1477ZM94.9251 98.1477C94.9251 101.129 92.4997 103.555 89.5183 103.555C86.5369 103.555 84.1113 101.129 84.1113 98.1477C84.1113 95.1663 86.5369 92.7407 89.5183 92.7407C92.4997 92.7407 94.9251 95.1665 94.9251 98.1477Z" fill="#F7617D"/>
</svg>
