<svg width="84" height="83" viewBox="0 0 84 83" fill="none" xmlns="http://www.w3.org/2000/svg">
<path d="M79.2169 17.0042L66.2461 4.03333C63.6699 1.45397 60.1749 0.00320929 56.5294 0H27.4711C23.8256 0.00320929 20.3306 1.45397 17.7544 4.03333L4.78358 17.0042C2.20422 19.5803 0.753453 23.0753 0.750244 26.7208V68.75C0.750244 72.3967 2.1989 75.8941 4.77753 78.4727C7.35615 81.0513 10.8535 82.5 14.5002 82.5H69.5002C73.147 82.5 76.6443 81.0513 79.223 78.4727C81.8016 75.8941 83.2502 72.3967 83.2502 68.75V26.7208C83.247 23.0753 81.7963 19.5803 79.2169 17.0042ZM42.0002 59.5833C37.1379 59.5833 32.4748 57.6518 29.0366 54.2136C25.5985 50.7755 23.6669 46.1123 23.6669 41.25C23.6669 40.0344 24.1498 38.8686 25.0093 38.0091C25.8689 37.1496 27.0347 36.6667 28.2502 36.6667C29.4658 36.6667 30.6316 37.1496 31.4911 38.0091C32.3507 38.8686 32.8336 40.0344 32.8336 41.25C32.8336 43.6812 33.7994 46.0127 35.5184 47.7318C37.2375 49.4509 39.5691 50.4167 42.0002 50.4167C44.4314 50.4167 46.763 49.4509 48.4821 47.7318C50.2011 46.0127 51.1669 43.6812 51.1669 41.25C51.1669 40.0344 51.6498 38.8686 52.5093 38.0091C53.3689 37.1496 54.5347 36.6667 55.7502 36.6667C56.9658 36.6667 58.1316 37.1496 58.9911 38.0091C59.8507 38.8686 60.3336 40.0344 60.3336 41.25C60.3336 46.1123 58.402 50.7755 54.9639 54.2136C51.5257 57.6518 46.8625 59.5833 42.0002 59.5833ZM16.3794 18.3333L24.2169 10.4958C25.0952 9.6583 26.2576 9.18355 27.4711 9.16667H56.5294C57.7429 9.18355 58.9053 9.6583 59.7836 10.4958L67.6211 18.3333H16.3794Z" fill="#2CD889"/>
</svg>
