<svg width="110" height="106" viewBox="0 0 110 106" fill="none" xmlns="http://www.w3.org/2000/svg">
<path d="M110 72.6035C110 66.7422 105.228 61.9707 99.3703 61.9707C99.116 61.9707 98.8684 62.0153 98.6209 62.0291C99.6729 59.5402 100.25 56.7694 100.25 53.727C100.25 46.6281 91.1748 30.3437 85.2516 24.9602C82.0064 25.6581 78.555 26.0362 74.9763 26.0362C71.2842 26.0362 67.7434 25.634 64.4088 24.8949C58.5578 29.6218 48.31 46.4081 48.31 53.7305C48.31 54.9646 48.4234 56.1403 48.6262 57.261C46.8592 57.1407 45.0613 57.0719 43.229 57.0719C38.4884 57.0719 33.9231 57.5841 29.6054 58.5295C29.4782 56.9585 29.3888 55.9993 29.3888 55.9993H1.2339C1.2339 55.9993 -0.000244141 66.3125 -0.000244141 79.0217C-0.000244141 91.731 1.2339 102.037 1.2339 102.037H29.3853C29.3853 102.037 29.6329 99.3455 29.901 95.5262C34.0916 94.8215 38.3818 95.9284 43.3356 99.0086C49.6197 103.106 57.3615 105.544 65.7426 105.544C74.2406 105.544 81.5389 103.038 87.6065 98.823L87.6134 98.8298C87.6855 98.7783 87.7543 98.7267 87.8471 98.6442C89.566 97.4341 91.192 96.0968 92.7081 94.6289C93.8975 93.412 95.5098 91.8547 97.9265 89.4896C106.043 81.5141 107.043 79.9362 107.043 79.9362C107.043 79.9362 107.026 79.9362 107.012 79.9362C108.858 78.0351 110 75.4568 110 72.6035ZM68.1696 44.9368C68.4309 44.3042 68.8056 43.7404 69.2663 43.2523C69.7476 42.7538 70.3045 42.3447 70.9439 42.025C71.5902 41.695 72.288 41.4819 73.0478 41.3684V39.5224H76.9599V41.6503C77.5374 41.8119 78.0565 42.0388 78.524 42.3138V41.4819H82.4396V47.3432H78.5C78.1837 46.9925 77.8709 46.6797 77.5752 46.4116C77.2727 46.1434 76.9564 45.9131 76.6264 45.7412C76.2861 45.5693 75.9286 45.4318 75.5298 45.339C75.1276 45.2462 74.6635 45.198 74.1203 45.198C73.3365 45.198 72.7418 45.3871 72.319 45.755C71.903 46.1297 71.6899 46.5284 71.6899 46.9582C71.6899 48.1682 72.9928 48.9658 75.6089 49.3611C77.228 49.6018 78.5172 50.0005 79.4763 50.5437C80.4251 51.0937 81.1573 51.6884 81.6661 52.3347C82.168 52.9742 82.4912 53.6101 82.6321 54.2358C82.7731 54.8649 82.8452 55.3634 82.8452 55.7518C82.8452 56.4978 82.6974 57.1957 82.3949 57.8282C82.0958 58.4745 81.6902 59.0452 81.1676 59.5196C80.6554 60.0043 80.0263 60.3927 79.3182 60.6953C78.5997 60.9909 77.8159 61.1662 76.9771 61.2247V62.9848H73.0649V60.6953C72.8518 60.6024 72.6662 60.5131 72.4599 60.4271C72.2605 60.3549 72.0818 60.2587 71.8893 60.1659V61.0253H67.9771V55.164H71.8893C72.2296 55.5387 72.5493 55.855 72.8828 56.13C73.2059 56.3981 73.5359 56.6284 73.89 56.7935C74.2372 56.9757 74.6154 57.1029 75.0313 57.1888C75.4542 57.2644 75.932 57.3057 76.4752 57.3057C77.1799 57.3057 77.7643 57.1647 78.2353 56.876C78.7028 56.5872 78.9331 56.2159 78.9331 55.745C78.9331 55.3565 78.8059 55.0162 78.5687 54.7205C78.3315 54.4352 78.0187 54.1945 77.6371 53.9814C77.259 53.7786 76.843 53.617 76.3858 53.4967C75.9251 53.3764 75.4748 53.2767 75.0245 53.201C73.4397 52.9604 72.178 52.5788 71.2292 52.0803C70.2838 51.5784 69.5516 51.0318 69.0359 50.4337C68.5306 49.8355 68.1834 49.2236 68.0287 48.6014C67.8671 47.9826 67.7915 47.4257 67.7915 46.9444C67.7743 46.2465 67.9084 45.5728 68.1696 44.9368ZM103.54 76.7666C102.117 78.176 96.1011 84.3811 94.4647 85.9831C90.2432 90.1255 88.2734 92.0679 87.3521 93.1404L87.328 93.1232C86.6817 93.7042 86.0045 94.2233 85.3135 94.7321C79.8682 98.4139 73.0856 100.621 65.7392 100.621C58.3206 100.621 51.4864 98.3864 46.0204 94.6461H45.9861C41.2523 91.7653 35.7073 89.9915 30.2207 90.5312C30.4407 86.7428 30.616 82.5935 30.616 79.0286C30.616 74.068 30.2723 67.9901 29.9594 63.3182C34.1294 62.3797 38.5881 61.8538 43.2187 61.8538C57.3718 61.8538 69.8954 66.5325 77.5649 73.8652C78.469 74.8724 79.0397 76.1959 79.0397 77.6535C79.0397 80.7956 76.482 83.3532 73.34 83.3532C73.23 83.3532 73.1165 83.3189 72.9859 83.312L72.9721 83.3739C70.0398 83.2742 65.4504 82.0435 57.7018 79.0767L55.9417 83.697C64.1338 86.8116 69.531 88.2211 73.3572 88.3173V88.2829C78.1528 88.2761 82.199 85.0721 83.5156 80.7165V80.7234C85.1726 77.9698 91.3777 72.2357 94.9013 69.1005V69.1073C94.9426 69.0592 94.9735 69.0352 95.001 69.0077C95.6507 68.4301 96.218 67.9351 96.6202 67.5879C97.3662 67.1135 98.1362 66.9175 99.3669 66.9175C102.502 66.9175 105.06 69.4752 105.06 72.6173C105.067 74.1814 104.369 75.6596 103.54 76.7666Z" fill="#2CD889"/>
<path d="M65.753 21.4021C65.753 21.4021 70.5314 22.5365 75.2136 22.5365C79.8923 22.5365 82.9725 21.873 82.9725 21.873C85.6917 20.5358 91.804 6.43768 88.2185 1.46675C84.2101 -4.07829 77.51 7.97434 74.416 6.73677C71.3358 5.50263 64.7629 -0.925901 60.428 1.69364C56.6602 3.97284 62.7897 19.1985 65.753 21.4021Z" fill="#2CD889"/>
</svg>
