<svg width="91" height="110" viewBox="0 0 91 110" fill="none" xmlns="http://www.w3.org/2000/svg">
<path d="M90.7266 27.9963V99.4189C90.7266 105.253 85.9796 110 80.1453 110H31.8691C26.0347 110 21.288 105.253 21.288 99.4189V52.9785C22.7973 53.2296 24.337 53.3924 25.9172 53.3924C27.0378 53.3924 28.1376 53.3092 29.2239 53.1807V99.4189C29.2239 100.877 30.4102 102.064 31.8691 102.064H80.1453C81.6037 102.064 82.7905 100.877 82.7905 99.4189V27.9963C82.7905 26.5375 81.6035 25.3511 80.1453 25.3511H53.9587C53.9587 22.5922 53.5442 19.9333 52.8012 17.4154H80.1453C85.9796 17.4152 90.7266 22.162 90.7266 27.9963ZM25.4753 49.9109C11.7143 49.9109 0.519531 38.7162 0.519531 24.9558C0.51975 11.1947 11.7143 0 25.4753 0C39.236 0 50.4311 11.1947 50.4311 24.9558C50.4311 38.7162 39.236 49.9109 25.4753 49.9109ZM25.4753 44.6203C36.318 44.6203 45.14 35.7998 45.14 24.9558C45.14 14.1111 36.3193 5.29067 25.4753 5.29067C14.6309 5.29067 5.8102 14.1111 5.8102 24.9558C5.8102 35.7998 14.6322 44.6203 25.4753 44.6203ZM40.4422 27.6012C41.9024 27.6012 43.0874 26.4162 43.0874 24.956C43.0874 23.4958 41.9024 22.3108 40.4422 22.3108H28.1205V11.9266C28.1205 10.4664 26.9355 9.28134 25.4753 9.28134C24.0152 9.28134 22.8301 10.4664 22.8301 11.9266V24.956C22.8301 26.4162 24.0152 27.6012 25.4753 27.6012H40.4422ZM70.9734 49.0488H42.3163C40.8561 49.0488 39.671 50.2339 39.671 51.6941C39.671 53.1545 40.8561 54.3393 42.3163 54.3393H70.9734C72.4342 54.3393 73.6186 53.1542 73.6186 51.6941C73.6188 50.2339 72.4342 49.0488 70.9734 49.0488ZM71.0199 65.0948H42.3628C40.9026 65.0948 39.7176 66.2792 39.7176 67.74C39.7176 69.2008 40.9026 70.3852 42.3628 70.3852H71.0199C72.4808 70.3852 73.6649 69.2008 73.6649 67.74C73.6649 66.2792 72.4821 65.0948 71.0199 65.0948ZM71.0199 81.8048H42.3628C40.9026 81.8048 39.7176 82.9905 39.7176 84.4501C39.7176 85.9109 40.9026 87.0951 42.3628 87.0951H71.0199C72.4808 87.0951 73.6649 85.9107 73.6649 84.4501C73.6652 82.9903 72.4821 81.8048 71.0199 81.8048Z" fill="#FECD54"/>
</svg>
