<svg width="22" height="22" viewBox="0 0 22 22" fill="none" xmlns="http://www.w3.org/2000/svg">
<path d="M20.2812 19.4219C20.2812 19.8965 19.8965 20.2812 19.4219 20.2812H18.5625V21.1406C18.5625 21.6153 18.1778 22 17.7031 22C17.2285 22 16.8438 21.6153 16.8438 21.1406V20.2812H15.9844C15.5097 20.2812 15.125 19.8965 15.125 19.4219C15.125 18.9472 15.5097 18.5625 15.9844 18.5625H16.8438V17.7031C16.8438 17.2285 17.2285 16.8438 17.7031 16.8438C18.1778 16.8438 18.5625 17.2285 18.5625 17.7031V18.5625H19.4219C19.8965 18.5625 20.2812 18.9472 20.2812 19.4219ZM20.2812 6.01562V14.2656C20.2812 14.7403 19.8965 15.125 19.4219 15.125C18.9472 15.125 18.5625 14.7403 18.5625 14.2656V6.875H16.8438V9.45312C16.8438 9.92776 16.459 10.3125 15.9844 10.3125C15.5097 10.3125 15.125 9.92776 15.125 9.45312V6.875H6.875V9.45312C6.875 9.92776 6.49026 10.3125 6.01562 10.3125C5.54099 10.3125 5.15625 9.92776 5.15625 9.45312V6.875H3.4375V20.2812H12.5469C13.0215 20.2812 13.4062 20.666 13.4062 21.1406C13.4062 21.6153 13.0215 22 12.5469 22H2.57812C2.10349 22 1.71875 21.6153 1.71875 21.1406V6.01562C1.71875 5.54099 2.10349 5.15625 2.57812 5.15625H5.1969C5.53829 2.25685 8.01036 0 11 0C13.9896 0 16.4617 2.25685 16.8031 5.15625H19.4219C19.8965 5.15625 20.2812 5.54099 20.2812 6.01562ZM15.0674 5.15625C14.7391 3.20783 13.0403 1.71875 11 1.71875C8.95971 1.71875 7.2609 3.20783 6.93262 5.15625H15.0674Z" fill="black"/>
</svg>
