<svg width="17" height="17" viewBox="0 0 17 17" fill="none" xmlns="http://www.w3.org/2000/svg">
<path d="M7.04764 12.9576L5.04449 14.9607C4.21402 15.7912 2.86914 15.7912 2.03937 14.9609C1.20944 14.131 1.20944 12.7859 2.03921 11.9562L6.04621 7.94916C6.87598 7.11935 8.22099 7.11935 9.05076 7.94916C9.32737 8.22577 9.77588 8.22577 10.0525 7.94916C10.3291 7.67255 10.3291 7.22404 10.0525 6.94743C8.66946 5.5644 6.42751 5.5644 5.04449 6.94743L1.03751 10.9544C-0.345513 12.3375 -0.345513 14.5794 1.03751 15.9625C2.42038 17.3462 4.66249 17.3462 6.04625 15.9625L8.0494 13.9593C8.32601 13.6827 8.32601 13.2342 8.0494 12.9576C7.77279 12.681 7.32425 12.681 7.04764 12.9576Z" fill="#0000FF"/>
<path d="M15.9623 6.04527C17.3453 4.66224 17.3453 2.42029 15.9623 1.03727C14.5793 -0.345728 12.3374 -0.345728 10.9537 1.0371L8.55018 3.44061C8.27357 3.71722 8.27357 4.16573 8.55018 4.44234C8.82679 4.71895 9.27529 4.71895 9.55191 4.44234L11.9553 2.03899C12.7856 1.20919 14.1307 1.20919 14.9605 2.03899C15.7903 2.86876 15.7903 4.21377 14.9605 5.04354L10.5533 9.45074C9.72353 10.2805 8.37855 10.2805 7.54879 9.45074C7.27217 9.17413 6.82367 9.17413 6.54706 9.45074C6.27045 9.72735 6.27045 10.1759 6.54706 10.4525C7.93009 11.8355 10.172 11.8355 11.5551 10.4525L15.9623 6.04527Z" fill="#0000FF"/>
<path d="M13.2512 12.2494C12.9746 11.9728 12.5261 11.9728 12.2494 12.2494C11.9728 12.5261 11.9728 12.9746 12.2494 13.2512L14.3737 15.3754C14.6503 15.652 15.0988 15.652 15.3754 15.3754C15.652 15.0988 15.652 14.6503 15.3754 14.3737L13.2512 12.2494Z" fill="#0000FF"/>
<path d="M3.75013 4.7516C4.02674 5.02822 4.47524 5.02822 4.75186 4.7516C5.02847 4.47499 5.02847 4.02649 4.75186 3.74988L2.62545 1.62347C2.34884 1.34686 1.90033 1.34686 1.62372 1.62347C1.34711 1.90009 1.34711 2.34859 1.62372 2.6252L3.75013 4.7516Z" fill="#0000FF"/>
<path d="M16.2916 10.625H14.1666C13.7754 10.625 13.4583 10.9421 13.4583 11.3333C13.4583 11.7245 13.7754 12.0416 14.1666 12.0416H16.2916C16.6828 12.0416 16.9999 11.7245 16.9999 11.3333C16.9999 10.9421 16.6828 10.625 16.2916 10.625Z" fill="#0000FF"/>
<path d="M5.66657 3.54164C6.05776 3.54164 6.37488 3.22452 6.37488 2.83332V0.708347C6.37488 0.317119 6.05776 0 5.66657 0C5.27537 0 4.95825 0.317119 4.95825 0.708314V2.83329C4.95822 3.22448 5.27537 3.54164 5.66657 3.54164Z" fill="#0000FF"/>
<path d="M0.708314 6.37464H2.83329C3.22448 6.37464 3.5416 6.05752 3.5416 5.66632C3.5416 5.27513 3.22448 4.95801 2.83329 4.95801H0.708314C0.317119 4.95801 0 5.27513 0 5.66632C0 6.05752 0.317119 6.37464 0.708314 6.37464Z" fill="#0000FF"/>
<path d="M11.3333 13.458C10.9421 13.458 10.625 13.7751 10.625 14.1663V16.2913C10.625 16.6825 10.9421 16.9996 11.3333 16.9996C11.7245 16.9996 12.0416 16.6825 12.0416 16.2913V14.1663C12.0417 13.7752 11.7245 13.458 11.3333 13.458Z" fill="#0000FF"/>
</svg>
