<svg width="28" height="20" viewBox="0 0 28 20" fill="none" xmlns="http://www.w3.org/2000/svg">
<path d="M25.5391 0.408203H2.46094C1.10398 0.408203 0 1.51218 0 2.86914V17.1307C0 18.4876 1.10398 19.5916 2.46094 19.5916H25.5391C26.896 19.5916 28 18.4876 28 17.1307V2.86914C28 1.51218 26.896 0.408203 25.5391 0.408203ZM25.2179 2.04883L24.8894 2.32232L14.9764 10.5769C14.4106 11.048 13.5893 11.048 13.0236 10.5769L3.11057 2.32232L2.78212 2.04883H25.2179ZM1.64062 3.23325L9.71753 9.95888L1.64062 15.3343V3.23325ZM25.5391 17.951H2.46094C2.06456 17.951 1.73305 17.6683 1.65709 17.2941L11.033 11.0542L11.9738 11.8377C12.5608 12.3265 13.2805 12.5709 14.0001 12.5709C14.7196 12.5709 15.4392 12.3265 16.0263 11.8377L16.9671 11.0542L26.343 17.2941C26.267 17.6684 25.9354 17.951 25.5391 17.951ZM26.3594 15.3343L18.2825 9.95894L26.3594 3.23325V15.3343Z" fill="#A09E9E"/>
</svg>
