<svg width="40" height="33" viewBox="0 0 40 33" fill="none" xmlns="http://www.w3.org/2000/svg">
<g clip-path="url(#clip0)">
<path d="M15.0614 30.3118H3.88718C3.47201 30.3118 3.0937 30.1194 2.84908 29.7838C2.60441 29.4481 2.53704 29.0287 2.66418 28.6332C3.9337 24.6863 7.80532 21.9298 12.0792 21.9298C14.0678 21.9298 15.9775 22.5286 17.6018 23.6615C18.1837 24.0673 18.9841 23.9246 19.3901 23.3428C19.7958 22.761 19.6532 21.9604 19.0714 21.5546C18.2673 20.9938 17.4082 20.5363 16.5096 20.187C17.7052 19.0999 18.4984 17.5777 18.6362 15.8732C20.4491 14.1073 22.8253 13.1396 25.3727 13.1396C27.3613 13.1396 29.271 13.7385 30.8953 14.8713C31.4772 15.2771 32.2777 15.1345 32.6836 14.5527C33.0893 13.9709 32.9467 13.1703 32.3649 12.7644C31.5608 12.2036 30.7018 11.7461 29.8031 11.3968C31.122 10.1977 31.9511 8.46904 31.9511 6.55034C31.9512 2.93852 29.0127 0 25.4008 0C21.7888 0 18.8504 2.93852 18.8504 6.55047C18.8504 8.46138 19.6729 10.1838 20.9825 11.3824C20.8033 11.4514 20.6254 11.5247 20.4488 11.6024C19.6451 11.9561 18.8892 12.3903 18.1866 12.901C17.2171 10.4938 14.8573 8.79021 12.1072 8.79021C8.49528 8.79021 5.55682 11.7287 5.55682 15.3407C5.55682 17.246 6.37456 18.964 7.67741 20.1621C4.19363 21.4676 1.36886 24.2713 0.218873 27.8469C-0.162524 29.0327 0.0394985 30.2902 0.773212 31.2969C1.5068 32.3035 2.64172 32.8808 3.88725 32.8808H15.0615C15.7709 32.8808 16.3459 32.3057 16.3459 31.5964C16.3459 30.8871 15.7708 30.3118 15.0614 30.3118ZM25.4009 2.56877C27.5963 2.56877 29.3825 4.35493 29.3825 6.5504C29.3825 8.74588 27.5963 10.532 25.4009 10.532C23.2054 10.532 21.4192 8.74588 21.4192 6.5504C21.4192 4.35493 23.2054 2.56877 25.4009 2.56877ZM12.1073 11.3589C14.3028 11.3589 16.0889 13.1451 16.0889 15.3406C16.0889 17.536 14.3028 19.3222 12.1073 19.3222C9.91181 19.3222 8.12566 17.536 8.12566 15.3406C8.12566 13.1451 9.91181 11.3589 12.1073 11.3589Z" fill="black"/>
<path d="M32.3762 20.9794C31.7994 20.5665 30.997 20.6993 30.5842 21.2761L24.2533 30.1192C24.0804 30.3197 23.8637 30.363 23.7476 30.3707C23.6282 30.3789 23.3962 30.3634 23.1972 30.174L19.0987 26.2386C18.5869 25.7472 17.7738 25.7638 17.2827 26.2755C16.7913 26.7871 16.8078 27.6002 17.3195 28.0915L21.4221 32.0308C22.0366 32.6157 22.8567 32.9411 23.7006 32.9411C23.7731 32.9411 23.8458 32.9387 23.9185 32.9338C24.8378 32.8726 25.6961 32.4255 26.2732 31.7074C26.2882 31.6888 26.3025 31.6698 26.3165 31.6505L32.673 22.7714C33.0858 22.1946 32.953 21.3923 32.3762 20.9794Z" fill="black"/>
</g>
<path d="M40 18.8231C40 17.8923 39.724 16.9825 39.2069 16.2086C38.6898 15.4347 37.9549 14.8316 37.095 14.4754C36.2351 14.1192 35.2889 14.026 34.3761 14.2076C33.4632 14.3892 32.6247 14.8374 31.9666 15.4955C31.3085 16.1536 30.8603 16.9921 30.6787 17.905C30.4971 18.8179 30.5903 19.764 30.9465 20.6239C31.3026 21.4838 31.9058 22.2188 32.6797 22.7359C33.4536 23.253 34.3634 23.529 35.2941 23.529C36.5412 23.5256 37.7362 23.0288 38.618 22.147C39.4998 21.2651 39.9967 20.0701 40 18.8231ZM32.9349 18.8231C32.9349 18.3565 33.0733 17.9003 33.3325 17.5123C33.5917 17.1244 33.9602 16.822 34.3913 16.6434C34.8224 16.4648 35.2968 16.4181 35.7544 16.5092C36.2121 16.6002 36.6324 16.8249 36.9624 17.1548C37.2923 17.4848 37.517 17.9052 37.6081 18.3628C37.6991 18.8205 37.6524 19.2948 37.4738 19.7259C37.2952 20.157 36.9928 20.5255 36.6049 20.7847C36.2169 21.044 35.7608 21.1823 35.2941 21.1823C34.9843 21.1823 34.6775 21.1213 34.3913 21.0027C34.1051 20.8842 33.845 20.7104 33.6259 20.4913C33.4068 20.2722 33.233 20.0122 33.1145 19.7259C32.9959 19.4397 32.9349 19.1329 32.9349 18.8231Z" fill="black"/>
<defs>
<clipPath id="clip0">
<rect width="32.9412" height="32.9412" fill="white"/>
</clipPath>
</defs>
</svg>
