<svg width="15" height="15" viewBox="0 0 15 15" fill="none" xmlns="http://www.w3.org/2000/svg">
<g clip-path="url(#clip0)">
<path d="M14.8503 6.01954C14.4547 4.05561 13.3187 2.36351 11.651 1.255C10.0576 0.195877 8.14244 -0.212162 6.25474 0.104619C6.24223 0.106494 6.22975 0.108369 6.21724 0.110244C2.14318 0.818218 -0.594944 4.70859 0.113001 8.78139C0.16925 9.10758 0.248585 9.43312 0.346698 9.74553C0.759717 11.0871 0.657883 12.5249 0.0605024 13.7946C-0.043851 14.0146 -0.00948644 14.2757 0.147366 14.4626C0.304218 14.6494 0.552885 14.7263 0.790332 14.6632L3.59094 13.8983C4.77691 14.6244 6.11599 15 7.48319 15C7.97994 15 8.48046 14.9506 8.97909 14.85C10.943 14.4545 12.6351 13.3185 13.7436 11.6507C14.8521 9.98298 15.2452 7.98345 14.8503 6.01954ZM12.7026 10.9584C11.7785 12.3487 10.3682 13.296 8.7323 13.6253C7.09768 13.9527 5.42993 13.6266 4.03961 12.7024C3.93588 12.6337 3.81529 12.598 3.69345 12.598C3.63846 12.598 3.58286 12.6055 3.52913 12.6199L1.62144 13.1404C1.94387 11.9113 1.92011 10.6097 1.5402 9.37315C1.45709 9.10945 1.39085 8.83952 1.344 8.56771C0.755997 5.18223 3.02359 1.9492 6.40221 1.34684C6.41346 1.34558 6.42471 1.34371 6.43596 1.34183C8.01747 1.06876 9.62337 1.40807 10.9593 2.29537C12.3496 3.21952 13.2963 4.62984 13.6256 6.26572C13.9549 7.90224 13.6268 9.56873 12.7026 10.9584Z" fill="black"/>
<path d="M9.998 5.62476H4.99913C4.65358 5.62476 4.37427 5.90407 4.37427 6.24962C4.37427 6.59517 4.65358 6.87448 4.99913 6.87448H9.998C10.3429 6.87448 10.6229 6.59517 10.6229 6.24962C10.6229 5.90407 10.3435 5.62476 9.998 5.62476Z" fill="black"/>
<path d="M9.998 8.12402H4.99913C4.65358 8.12402 4.37427 8.40333 4.37427 8.74888C4.37427 9.09443 4.65358 9.37374 4.99913 9.37374H9.998C10.3429 9.37374 10.6229 9.09443 10.6229 8.74888C10.6229 8.40333 10.3435 8.12402 9.998 8.12402Z" fill="black"/>
</g>
<defs>
<clipPath id="clip0">
<rect width="15" height="15" fill="white"/>
</clipPath>
</defs>
</svg>
