<svg width="24" height="24" viewBox="0 0 24 24" fill="none" xmlns="http://www.w3.org/2000/svg">
<path d="M8.46732 3.80038C8.92755 3.80038 9.38778 3.80038 9.84801 3.80038C10.942 3.80038 12.0387 3.80038 13.1327 3.80038C14.4556 3.80038 15.781 3.80038 17.1039 3.80038C18.2557 3.80038 19.4076 3.80038 20.5595 3.80038C21.1144 3.80038 21.672 3.8109 22.2269 3.80038C22.2347 3.80038 22.2426 3.80038 22.2505 3.80038C22.6634 3.80038 23.0579 3.43745 23.0395 3.01141C23.0211 2.58274 22.6923 2.22245 22.2505 2.22245C21.7903 2.22245 21.3301 2.22245 20.8698 2.22245C19.7758 2.22245 18.6792 2.22245 17.5851 2.22245C16.2623 2.22245 14.9368 2.22245 13.614 2.22245C12.4621 2.22245 11.3102 2.22245 10.1583 2.22245C9.60343 2.22245 9.04589 2.21193 8.49099 2.22245C8.4831 2.22245 8.47521 2.22245 8.46732 2.22245C8.05443 2.22245 7.65995 2.58537 7.67835 3.01141C7.69676 3.44008 8.0255 3.80038 8.46732 3.80038Z" fill="black"/>
<path d="M0.789584 3.80059C1.7416 3.80059 2.69362 3.80059 3.64564 3.80059C3.77976 3.80059 3.91651 3.80059 4.05064 3.80059C4.46353 3.80059 4.85801 3.43766 4.8396 3.01162C4.82119 2.58295 4.49246 2.22266 4.05064 2.22266C3.09862 2.22266 2.1466 2.22266 1.19459 2.22266C1.06046 2.22266 0.923708 2.22266 0.789584 2.22266C0.376693 2.22266 -0.0177891 2.58558 0.000620035 3.01162C0.0190292 3.44029 0.347764 3.80059 0.789584 3.80059Z" fill="black"/>
<path d="M6.26099 4.43427C6.16368 4.43427 6.06638 4.42638 5.96907 4.41586C6.04008 4.42638 6.10846 4.43427 6.17946 4.44479C5.97959 4.41586 5.78761 4.36327 5.60089 4.287C5.66401 4.3133 5.72712 4.3396 5.79024 4.36589C5.66401 4.31067 5.5404 4.24492 5.42469 4.16602C5.40891 4.1555 5.34053 4.11869 5.34053 4.10554C5.34053 4.1108 5.51147 4.24755 5.40628 4.1555C5.35368 4.1108 5.30371 4.06609 5.25374 4.01612C5.20904 3.97141 5.16696 3.92407 5.12488 3.87674C5.0828 3.82414 5.03546 3.72946 5.1617 3.92933C5.14329 3.90041 5.12225 3.87411 5.10121 3.84518C5.02232 3.72946 4.9592 3.60849 4.90134 3.47962C4.92764 3.54274 4.95394 3.60586 4.98024 3.66898C4.90134 3.48225 4.84874 3.29027 4.82244 3.0904C4.83296 3.16141 4.84085 3.22979 4.85137 3.30079C4.8277 3.10618 4.8277 2.91157 4.85137 2.71696C4.84085 2.78797 4.83296 2.85634 4.82244 2.92735C4.85137 2.72748 4.90397 2.5355 4.98024 2.34878C4.95394 2.41189 4.92764 2.47501 4.90134 2.53813C4.95657 2.41189 5.02232 2.28829 5.10121 2.17257C5.11173 2.15679 5.14855 2.08842 5.1617 2.08842C5.15644 2.08842 5.01969 2.25936 5.11173 2.15416C5.15644 2.10157 5.20115 2.0516 5.25111 2.00163C5.29582 1.95692 5.34316 1.91485 5.3905 1.87277C5.4431 1.83069 5.53777 1.78335 5.3379 1.90959C5.36683 1.89118 5.39313 1.87014 5.42206 1.8491C5.53777 1.7702 5.65875 1.70708 5.78761 1.64923C5.72449 1.67553 5.66138 1.70182 5.59826 1.72812C5.78498 1.64923 5.97696 1.59663 6.17683 1.57033C6.10583 1.58085 6.03745 1.58874 5.96644 1.59926C6.16105 1.57559 6.35567 1.57559 6.55028 1.59926C6.47927 1.58874 6.41089 1.58085 6.33989 1.57033C6.53976 1.59926 6.73174 1.65186 6.91846 1.72812C6.85534 1.70182 6.79223 1.67553 6.72911 1.64923C6.85534 1.70445 6.97895 1.7702 7.09466 1.8491C7.11044 1.85962 7.17882 1.89644 7.17882 1.90959C7.17882 1.90433 7.00788 1.76757 7.11307 1.85962C7.16567 1.90433 7.21564 1.94903 7.2656 1.999C7.31031 2.04371 7.35239 2.09105 7.39447 2.13839C7.43655 2.19098 7.48388 2.28566 7.35765 2.08579C7.37606 2.11472 7.3971 2.14101 7.41814 2.16994C7.49703 2.28566 7.56015 2.40663 7.61801 2.5355C7.59171 2.47238 7.56541 2.40926 7.53911 2.34615C7.61801 2.53287 7.67061 2.72485 7.6969 2.92472C7.68639 2.85371 7.6785 2.78534 7.66798 2.71433C7.69165 2.90894 7.69165 3.10355 7.66798 3.29816C7.6785 3.22716 7.68639 3.15878 7.6969 3.08777C7.66798 3.28764 7.61538 3.47962 7.53911 3.66635C7.56541 3.60323 7.59171 3.54011 7.61801 3.47699C7.56278 3.60323 7.49703 3.72683 7.41814 3.84255C7.40762 3.85833 7.3708 3.9267 7.35765 3.9267C7.36291 3.9267 7.49966 3.75576 7.40762 3.86096C7.36291 3.91356 7.3182 3.96352 7.26823 4.01349C7.22353 4.0582 7.17619 4.10028 7.12885 4.14235C7.07625 4.18443 6.98158 4.23177 7.18145 4.10554C7.15252 4.12395 7.12622 4.14498 7.09729 4.16602C6.98158 4.24492 6.8606 4.30804 6.73174 4.36589C6.79486 4.3396 6.85797 4.3133 6.92109 4.287C6.73437 4.36589 6.54239 4.41849 6.34252 4.44479C6.41352 4.43427 6.4819 4.42638 6.55291 4.41586C6.4556 4.42638 6.3583 4.43427 6.26099 4.43427C5.8481 4.4369 5.45362 4.79457 5.47203 5.22324C5.49043 5.64665 5.81917 6.01483 6.26099 6.0122C6.85271 6.00694 7.46811 5.836 7.952 5.48885C8.4885 5.10489 8.86983 4.60784 9.10126 3.98982C9.51678 2.87475 9.14597 1.48617 8.22288 0.731399C7.70216 0.307988 7.1157 0.0634086 6.44771 0.00818112C5.85599 -0.0391567 5.22482 0.121266 4.71725 0.428962C4.22546 0.728769 3.79416 1.17848 3.55747 1.70445C3.27607 2.32511 3.19455 2.97732 3.32867 3.64794C3.60218 5.01811 4.88819 5.99905 6.26362 6.00957C6.67651 6.0122 7.07099 5.64402 7.05258 5.22061C7.03154 4.79194 6.70281 4.4369 6.26099 4.43427Z" fill="black"/>
<path d="M18.7271 12.7947C19.758 12.7947 20.7889 12.7947 21.8172 12.7947C21.9618 12.7947 22.1065 12.7947 22.2511 12.7947C22.664 12.7947 23.0585 12.4318 23.0401 12.0058C23.0217 11.5771 22.6929 11.2168 22.2511 11.2168C21.2202 11.2168 20.1893 11.2168 19.161 11.2168C19.0164 11.2168 18.8717 11.2168 18.7271 11.2168C18.3142 11.2168 17.9197 11.5797 17.9381 12.0058C17.9565 12.4344 18.2853 12.7947 18.7271 12.7947Z" fill="black"/>
<path d="M0.789584 12.7945C1.23929 12.7945 1.69163 12.7945 2.14134 12.7945C3.21434 12.7945 4.28733 12.7945 5.36032 12.7945C6.66211 12.7945 7.9639 12.7945 9.26569 12.7945C10.3913 12.7945 11.5169 12.7945 12.6425 12.7945C13.1895 12.7945 13.7365 12.805 14.2835 12.7945C14.2914 12.7945 14.2993 12.7945 14.3072 12.7945C14.7201 12.7945 15.1145 12.4316 15.0961 12.0056C15.0777 11.5769 14.749 11.2166 14.3072 11.2166C13.8575 11.2166 13.4051 11.2166 12.9554 11.2166C11.8824 11.2166 10.8094 11.2166 9.73644 11.2166C8.43465 11.2166 7.13286 11.2166 5.83107 11.2166C4.70548 11.2166 3.57989 11.2166 2.4543 11.2166C1.90728 11.2166 1.36027 11.2061 0.813253 11.2166C0.805364 11.2166 0.797474 11.2166 0.789584 11.2166C0.376693 11.2166 -0.0177891 11.5795 0.000620035 12.0056C0.0190292 12.4342 0.347764 12.7945 0.789584 12.7945Z" fill="black"/>
<path d="M16.5159 13.4284C16.4186 13.4284 16.3213 13.4205 16.224 13.41C16.295 13.4205 16.3633 13.4284 16.4343 13.4389C16.2345 13.41 16.0425 13.3574 15.8558 13.2811C15.9189 13.3074 15.982 13.3337 16.0451 13.36C15.9189 13.3048 15.7953 13.2391 15.6796 13.1602C15.6638 13.1496 15.5954 13.1128 15.5954 13.0997C15.5954 13.1049 15.7664 13.2417 15.6612 13.1496C15.6086 13.1049 15.5586 13.0602 15.5086 13.0103C15.4639 12.9656 15.4218 12.9182 15.3798 12.8709C15.3377 12.8183 15.2903 12.7236 15.4166 12.9235C15.3982 12.8945 15.3771 12.8682 15.3561 12.8393C15.2772 12.7236 15.2141 12.6026 15.1562 12.4738C15.1825 12.5369 15.2088 12.6 15.2351 12.6631C15.1562 12.4764 15.1036 12.2844 15.0773 12.0845C15.0878 12.1556 15.0957 12.2239 15.1063 12.2949C15.0826 12.1003 15.0826 11.9057 15.1063 11.7111C15.0957 11.7821 15.0878 11.8505 15.0773 11.9215C15.1063 11.7216 15.1589 11.5296 15.2351 11.3429C15.2088 11.406 15.1825 11.4692 15.1562 11.5323C15.2115 11.406 15.2772 11.2824 15.3561 11.1667C15.3666 11.1509 15.4034 11.0826 15.4166 11.0826C15.4113 11.0826 15.2746 11.2535 15.3666 11.1483C15.4113 11.0957 15.456 11.0457 15.506 10.9958C15.5507 10.9511 15.598 10.909 15.6454 10.8669C15.698 10.8248 15.7927 10.7775 15.5928 10.9037C15.6217 10.8853 15.648 10.8643 15.6769 10.8432C15.7927 10.7643 15.9136 10.7012 16.0425 10.6434C15.9794 10.6697 15.9163 10.696 15.8531 10.7223C16.0399 10.6434 16.2318 10.5908 16.4317 10.5645C16.3607 10.575 16.2923 10.5829 16.2213 10.5934C16.4159 10.5697 16.6105 10.5697 16.8052 10.5934C16.7342 10.5829 16.6658 10.575 16.5948 10.5645C16.7946 10.5934 16.9866 10.646 17.1733 10.7223C17.1102 10.696 17.0471 10.6697 16.984 10.6434C17.1102 10.6986 17.2338 10.7643 17.3495 10.8432C17.3653 10.8538 17.4337 10.8906 17.4337 10.9037C17.4337 10.8985 17.2628 10.7617 17.368 10.8538C17.4206 10.8985 17.4705 10.9432 17.5205 10.9931C17.5652 11.0379 17.6073 11.0852 17.6494 11.1325C17.6914 11.1851 17.7388 11.2798 17.6125 11.0799C17.6309 11.1089 17.652 11.1352 17.673 11.1641C17.7519 11.2798 17.815 11.4008 17.8729 11.5296C17.8466 11.4665 17.8203 11.4034 17.794 11.3403C17.8729 11.527 17.9255 11.719 17.9518 11.9189C17.9413 11.8479 17.9334 11.7795 17.9229 11.7085C17.9465 11.9031 17.9465 12.0977 17.9229 12.2923C17.9334 12.2213 17.9413 12.1529 17.9518 12.0819C17.9229 12.2818 17.8703 12.4738 17.794 12.6605C17.8203 12.5974 17.8466 12.5343 17.8729 12.4711C17.8177 12.5974 17.7519 12.721 17.673 12.8367C17.6625 12.8525 17.6257 12.9208 17.6125 12.9208C17.6178 12.9208 17.7545 12.7499 17.6625 12.8551C17.6178 12.9077 17.5731 12.9577 17.5231 13.0076C17.4784 13.0523 17.4311 13.0944 17.3837 13.1365C17.3311 13.1786 17.2365 13.2259 17.4363 13.0997C17.4074 13.1181 17.3811 13.1391 17.3522 13.1602C17.2365 13.2391 17.1155 13.3022 16.9866 13.36C17.0497 13.3337 17.1129 13.3074 17.176 13.2811C16.9893 13.36 16.7973 13.4126 16.5974 13.4389C16.6684 13.4284 16.7368 13.4205 16.8078 13.41C16.7105 13.4205 16.6132 13.4284 16.5159 13.4284C16.103 13.431 15.7085 13.7887 15.7269 14.2174C15.7453 14.6408 16.0741 15.009 16.5159 15.0063C17.1076 15.0011 17.723 14.8301 18.2069 14.483C18.7434 14.099 19.1247 13.602 19.3561 12.984C19.7717 11.8689 19.4009 10.4803 18.4778 9.72554C17.957 9.30213 17.3706 9.05755 16.7026 9.00232C16.1109 8.95498 15.4797 9.11541 14.9721 9.4231C14.4803 9.72291 14.049 10.1726 13.8124 10.6986C13.531 11.3192 13.4494 11.9715 13.5836 12.6421C13.8571 14.0122 15.1431 14.9932 16.5185 15.0037C16.9314 15.0063 17.3259 14.6382 17.3075 14.2147C17.2864 13.7861 16.9577 13.431 16.5159 13.4284Z" fill="black"/>
<path d="M12.6763 21.7894C12.9919 21.7894 13.3101 21.7894 13.6257 21.7894C14.3857 21.7894 15.1484 21.7894 15.9084 21.7894C16.8289 21.7894 17.752 21.7894 18.6724 21.7894C19.4693 21.7894 20.2661 21.7894 21.063 21.7894C21.4522 21.7894 21.8414 21.7973 22.2307 21.7894C22.2359 21.7894 22.2412 21.7894 22.2491 21.7894C22.662 21.7894 23.0564 21.4265 23.038 21.0005C23.0196 20.5718 22.6909 20.2115 22.2491 20.2115C21.9335 20.2115 21.6153 20.2115 21.2997 20.2115C20.5396 20.2115 19.777 20.2115 19.0169 20.2115C18.0965 20.2115 17.1734 20.2115 16.2529 20.2115C15.4561 20.2115 14.6592 20.2115 13.8624 20.2115C13.4732 20.2115 13.0839 20.2036 12.6947 20.2115C12.6895 20.2115 12.6842 20.2115 12.6763 20.2115C12.2634 20.2115 11.8689 20.5744 11.8873 21.0005C11.9057 21.4291 12.2345 21.7894 12.6763 21.7894Z" fill="black"/>
<path d="M0.789584 21.7898C1.62852 21.7898 2.46745 21.7898 3.30901 21.7898C4.65288 21.7898 5.99412 21.7898 7.33799 21.7898C7.64569 21.7898 7.95338 21.7898 8.25845 21.7898C8.67134 21.7898 9.06582 21.4269 9.04741 21.0009C9.029 20.5722 8.70027 20.2119 8.25845 20.2119C7.41952 20.2119 6.58058 20.2119 5.73902 20.2119C4.39515 20.2119 3.05391 20.2119 1.71004 20.2119C1.40235 20.2119 1.09465 20.2119 0.789584 20.2119C0.376693 20.2119 -0.0177891 20.5748 0.000620035 21.0009C0.0190292 21.4295 0.347764 21.7898 0.789584 21.7898Z" fill="black"/>
<path d="M10.469 22.4216C10.3717 22.4216 10.2744 22.4137 10.1771 22.4032C10.2481 22.4137 10.3165 22.4216 10.3875 22.4321C10.1876 22.4032 9.99562 22.3506 9.8089 22.2743C9.87201 22.3006 9.93513 22.3269 9.99825 22.3532C9.87201 22.298 9.74841 22.2322 9.63269 22.1533C9.61692 22.1428 9.54854 22.106 9.54854 22.0928C9.54854 22.0981 9.71948 22.2349 9.61429 22.1428C9.56169 22.0981 9.51172 22.0534 9.46175 22.0034C9.41704 21.9587 9.37497 21.9114 9.33289 21.864C9.29081 21.8114 9.24347 21.7168 9.36971 21.9166C9.3513 21.8877 9.33026 21.8614 9.30922 21.8325C9.23032 21.7168 9.16721 21.5958 9.10935 21.4669C9.13565 21.53 9.16195 21.5932 9.18824 21.6563C9.10935 21.4696 9.05675 21.2776 9.03045 21.0777C9.04097 21.1487 9.04886 21.2171 9.05938 21.2881C9.03571 21.0935 9.03571 20.8989 9.05938 20.7043C9.04886 20.7753 9.04097 20.8436 9.03045 20.9147C9.05938 20.7148 9.11198 20.5228 9.18824 20.3361C9.16195 20.3992 9.13565 20.4623 9.10935 20.5254C9.16458 20.3992 9.23032 20.2756 9.30922 20.1599C9.31974 20.1441 9.35656 20.0757 9.36971 20.0757C9.36445 20.0757 9.22769 20.2467 9.31974 20.1415C9.36445 20.0889 9.40915 20.0389 9.45912 19.9889C9.50383 19.9442 9.55117 19.9022 9.59851 19.8601C9.6511 19.818 9.74578 19.7707 9.54591 19.8969C9.57484 19.8785 9.60114 19.8574 9.63006 19.8364C9.74578 19.7575 9.86675 19.6944 9.99562 19.6365C9.9325 19.6628 9.86938 19.6891 9.80627 19.7154C9.99299 19.6365 10.185 19.5839 10.3848 19.5576C10.3138 19.5682 10.2455 19.576 10.1745 19.5866C10.3691 19.5629 10.5637 19.5629 10.7583 19.5866C10.6873 19.576 10.6189 19.5682 10.5479 19.5576C10.7478 19.5866 10.9397 19.6392 11.1265 19.7154C11.0634 19.6891 11.0002 19.6628 10.9371 19.6365C11.0634 19.6918 11.187 19.7575 11.3027 19.8364C11.3184 19.8469 11.3868 19.8837 11.3868 19.8969C11.3868 19.8916 11.2159 19.7549 11.3211 19.8469C11.3737 19.8916 11.4236 19.9363 11.4736 19.9863C11.5183 20.031 11.5604 20.0784 11.6025 20.1257C11.6446 20.1783 11.6919 20.273 11.5657 20.0731C11.5841 20.102 11.6051 20.1283 11.6261 20.1572C11.705 20.273 11.7682 20.3939 11.826 20.5228C11.7997 20.4597 11.7734 20.3966 11.7471 20.3335C11.826 20.5202 11.8786 20.7122 11.9049 20.912C11.8944 20.841 11.8865 20.7726 11.876 20.7016C11.8997 20.8962 11.8997 21.0909 11.876 21.2855C11.8865 21.2145 11.8944 21.1461 11.9049 21.0751C11.876 21.2749 11.8234 21.4669 11.7471 21.6537C11.7734 21.5905 11.7997 21.5274 11.826 21.4643C11.7708 21.5905 11.705 21.7141 11.6261 21.8299C11.6156 21.8456 11.5788 21.914 11.5657 21.914C11.5709 21.914 11.7077 21.7431 11.6156 21.8483C11.5709 21.9009 11.5262 21.9508 11.4762 22.0008C11.4315 22.0455 11.3842 22.0876 11.3369 22.1297C11.2843 22.1717 11.1896 22.2191 11.3895 22.0928C11.3605 22.1112 11.3342 22.1323 11.3053 22.1533C11.1896 22.2322 11.0686 22.2953 10.9397 22.3532C11.0029 22.3269 11.066 22.3006 11.1291 22.2743C10.9424 22.3532 10.7504 22.4058 10.5505 22.4321C10.6215 22.4216 10.6899 22.4137 10.7609 22.4032C10.6636 22.4137 10.5663 22.4216 10.469 22.4216C10.0561 22.4242 9.66162 22.7819 9.68003 23.2105C9.69844 23.634 10.0272 24.0021 10.469 23.9995C11.0607 23.9942 11.6761 23.8233 12.16 23.4762C12.6965 23.0922 13.0778 22.5951 13.3093 21.9771C13.7248 20.8621 13.354 19.4735 12.4309 18.7187C11.9102 18.2953 11.3237 18.0507 10.6557 17.9955C10.064 17.9481 9.43282 18.1086 8.92526 18.4163C8.43347 18.7161 8.00217 19.1658 7.76548 19.6918C7.48408 20.3124 7.40256 20.9646 7.53668 21.6352C7.81019 23.0054 9.0962 23.9864 10.4716 23.9969C10.8845 23.9995 11.279 23.6313 11.2606 23.2079C11.2396 22.7792 10.9108 22.4242 10.469 22.4216Z" fill="black"/>
</svg>
