<svg width="21" height="21" viewBox="0 0 21 21" fill="none" xmlns="http://www.w3.org/2000/svg">
<g clip-path="url(#clip0)">
<path d="M19.3193 2.54351L19.3193 2.54357C21.6269 5.03244 21.6269 8.87905 19.3194 11.3679L19.319 11.3683L11.0828 20.0571C11.0728 20.0676 11.0626 20.0778 11.0521 20.0878L19.3193 2.54351ZM19.3193 2.54351C18.2236 1.36584 16.6883 0.69577 15.0798 0.693286L15.0797 0.693286M19.3193 2.54351L15.0797 0.693286M15.0797 0.693286C13.47 0.695149 11.9332 1.3648 10.8359 2.54259C10.8358 2.54264 10.8358 2.54269 10.8357 2.54274L10.5015 2.89586L10.1674 2.54278C10.1674 2.54274 10.1673 2.54269 10.1673 2.54264C7.98982 0.199257 4.3249 0.0647222 1.98147 2.24212L1.98146 2.24213M15.0797 0.693286L1.98146 2.24213M1.98146 2.24213C1.87763 2.33864 1.77734 2.43889 1.68081 2.54278L1.68077 2.54282M1.98146 2.24213L1.68077 2.54282M1.68077 2.54282C-0.626923 5.03195 -0.626923 8.87879 1.68077 11.3679L1.68115 11.3683M1.68077 2.54282L1.68115 11.3683M1.68115 11.3683L9.92038 20.0571M1.68115 11.3683L9.92038 20.0571M9.92038 20.0571C10.2244 20.3781 10.7311 20.3918 11.0521 20.0878L9.92038 20.0571ZM18.1751 10.2504H18.1744L18.1596 10.266L10.5015 18.3432L2.84313 10.2665C2.84306 10.2664 2.843 10.2663 2.84294 10.2662C1.11154 8.39815 1.1116 5.51157 2.84313 3.64354L2.8432 3.64345C4.41311 1.94192 7.06519 1.83523 8.76673 3.40513C8.84935 3.48136 8.92883 3.56084 9.00505 3.64346L9.00551 3.64395L9.92039 4.60913L9.92037 4.60915L9.92144 4.6102C10.2424 4.92914 10.7607 4.92914 11.0817 4.6102L11.0817 4.61022L11.0827 4.60914L11.9976 3.64471L11.9981 3.6442C13.568 1.94266 16.2201 1.83598 17.9216 3.40588C18.0042 3.48211 18.0837 3.56159 18.1599 3.6442L18.1601 3.64442C19.9021 5.51045 19.9193 8.39118 18.1751 10.2504Z" fill="#AAAAAA" stroke="#AAAAAA" stroke-width="0.1"/>
</g>
<defs>
<clipPath id="clip0">
<rect width="21" height="21" fill="white"/>
</clipPath>
</defs>
</svg>
